<svg width="92" height="92" viewBox="0 0 92 92" fill="none" xmlns="http://www.w3.org/2000/svg">
<g clip-path="url(#clip0_97_28026)">
<g clip-path="url(#clip1_97_28026)">
<path d="M52.614 82.687H39.3818C38.8379 82.687 38.3995 82.2462 38.3995 81.7047V76.8939L1.18023 76.9849C0.650746 76.9969 0.183559 76.5321 0.195538 76.0002V27.1971C0.195538 26.6533 0.636371 26.2148 1.17783 26.2148C1.72168 26.2148 2.16252 26.6557 2.16252 27.1971V75.0156L39.3818 74.9269C39.9113 74.9149 40.3785 75.3797 40.3665 75.9092V80.72H51.6317V75.6001C51.6221 75.0707 52.0869 74.6059 52.614 74.6179L89.8356 74.625V27.1971C89.8356 26.6533 90.2765 26.2148 90.8179 26.2148C91.3618 26.2148 91.8002 26.6557 91.8002 27.1971V75.6097C91.8098 76.1392 91.345 76.604 90.8179 76.592L53.5963 76.5848V81.7071C53.5963 82.2462 53.1578 82.687 52.614 82.687Z" fill="white"/>
<path d="M83.3168 13.8996H49.9764C48.4383 13.8924 46.972 14.6303 46.0496 15.8594C45.1512 14.6615 43.7233 13.8828 42.1133 13.8828H8.77526C8.23141 13.8828 7.79297 14.3236 7.79297 14.8651V68.2059C7.79297 68.7498 8.2362 69.1882 8.77766 69.1882C8.8663 69.1882 38.0787 69.169 38.0787 69.169C40.8579 69.1714 43.522 70.482 45.2231 72.6765C45.5585 73.2396 46.4378 73.2851 46.8283 72.746C48.5245 70.5395 51.1959 69.2218 53.9798 69.2218H53.9846L83.3168 69.2361C83.8439 69.2457 84.3111 68.7809 84.3015 68.2538V14.8843C84.2991 14.3404 83.8607 13.8996 83.3168 13.8996ZM45.0626 69.7105C43.1099 68.1125 40.6351 67.2045 38.0787 67.2021L9.75755 67.1901V15.8498H42.1133C43.7401 15.8498 45.0626 17.1723 45.0626 18.7967V69.7105ZM82.3345 67.2715L53.987 67.2572C53.9846 67.2572 53.9822 67.2572 53.9822 67.2572C51.4427 67.2572 48.9797 68.158 47.0343 69.7393L47.0295 18.8158C46.996 17.2298 48.3928 15.833 49.9764 15.8666H82.3321V67.2715H82.3345Z" fill="white"/>
<path d="M52.6445 36.9067V22.6348H76.7227V36.9067H52.6445Z" stroke="white" stroke-width="1.4375"/>
<path d="M52.6445 60.4692V46.1973H76.7227V60.4692H52.6445Z" stroke="white" stroke-width="1.4375"/>
<path d="M40.1698 24.0586H14.6542C14.1103 24.0586 13.6719 24.4994 13.6719 25.0409V58.0291C13.6719 58.5706 14.1127 59.0114 14.6542 59.0114H40.1698C40.7136 59.0114 41.1521 58.5706 41.1521 58.0291V25.0409C41.1545 24.4994 40.7136 24.0586 40.1698 24.0586ZM29.4796 57.0468L28.0948 54.3779L32.3714 47.5593L38.3849 57.0492H29.4796V57.0468ZM39.1875 54.6438L33.1979 45.1898C32.8409 44.5861 31.8898 44.5885 31.5352 45.1946L27.0454 52.3534L22.9509 44.4543C22.6251 43.7715 21.5757 43.7523 21.2235 44.4232L15.6389 54.2988V26.028H39.1899V54.6438H39.1875Z" fill="white"/>
<path d="M31.5539 35.9577C31.5539 37.9103 29.9702 39.4915 28.0152 39.4915C26.0602 39.4915 24.4766 37.9103 24.4766 35.9577C24.4766 34.0051 26.0602 32.4238 28.0152 32.4238C29.9702 32.4238 31.5539 34.0051 31.5539 35.9577Z" fill="white"/>
<path d="M92.0017 21.9161C92.0017 22.6229 91.4291 23.1955 90.7247 23.1955C90.0179 23.1955 89.4453 22.6229 89.4453 21.9161C89.4453 21.2093 90.0179 20.6367 90.7247 20.6367C91.4291 20.6391 92.0017 21.2117 92.0017 21.9161Z" fill="white"/>
<path d="M2.55635 21.9161C2.55635 22.6229 1.98375 23.1955 1.27698 23.1955C0.570208 23.1955 0 22.6229 0 21.9161C0 21.2093 0.572604 20.6367 1.27698 20.6367C1.98135 20.6367 2.55635 21.2117 2.55635 21.9161Z" fill="white"/>
</g>
</g>
<defs>
<clipPath id="clip0_97_28026">
<rect width="92" height="92" fill="white"/>
</clipPath>
<clipPath id="clip1_97_28026">
<rect width="92" height="68.8035" fill="white" transform="translate(0 13.8828)"/>
</clipPath>
</defs>
</svg>
