<svg width="110" height="110" viewBox="0 0 110 110" fill="none" xmlns="http://www.w3.org/2000/svg">
<g clip-path="url(#clip0_97_28004)">
<path d="M106.562 19.5861H95.9915V18.8691C95.9915 18.276 95.5107 17.7949 94.9173 17.7949C94.3239 17.7949 93.8431 18.276 93.8431 18.8691V19.5861H83.2721C82.6787 19.5861 82.1979 20.0671 82.1979 20.6603C82.1979 21.2535 82.6787 21.7345 83.2721 21.7345H93.8431V25.8299H91.2022C90.6088 25.8299 90.128 26.3109 90.128 26.9041V31.7346H75.3148C74.5763 25.9235 69.6049 21.4148 63.5965 21.4148H46.4039C40.3956 21.4148 35.4239 25.9235 34.6857 31.7346H19.8722V26.9041C19.8722 26.3109 19.3914 25.8299 18.798 25.8299H16.1571V21.7345H26.7281C27.3215 21.7345 27.8023 21.2535 27.8023 20.6603C27.8023 20.0671 27.3215 19.5861 26.7281 19.5861H16.1571V18.8691C16.1571 18.276 15.6763 17.7949 15.0829 17.7949C14.4895 17.7949 14.0087 18.276 14.0087 18.8691V19.5861H3.4375C2.8441 19.5861 2.36328 20.0671 2.36328 20.6603C2.36328 21.2535 2.8441 21.7345 3.4375 21.7345H14.0085V25.8299H11.3676C10.7742 25.8299 10.2934 26.3109 10.2934 26.9041V43.3278C10.2934 45.9687 12.442 48.1171 15.0829 48.1171C17.7238 48.1171 19.8722 45.9687 19.8722 43.3278V40.8253H37.5528C27.2929 46.521 20.4059 56.9044 19.2171 68.6197H15.6479C13.6265 68.6197 11.9818 70.2643 11.9818 72.2857C11.9818 74.3072 13.6265 75.9516 15.6479 75.9516H22.6978C24.7193 75.9516 26.3637 74.3072 26.3637 72.2857C26.3637 61.5425 32.4582 51.6438 41.9785 46.7718L43.1456 49.2468C44.0548 51.1756 45.8711 52.3272 48.0036 52.3272H51.1895V54.4623H49.5758C47.7989 54.4623 46.3532 55.908 46.3532 57.685V63.8901C46.3532 65.667 47.7989 67.1127 49.5758 67.1127H60.4231C62.2001 67.1127 63.6457 65.667 63.6457 63.8901V57.685C63.6457 55.908 62.2001 54.4623 60.4231 54.4623H58.8094V52.3272H61.9955C64.1279 52.3272 65.9439 51.1756 66.8536 49.2468L68.0225 46.7675C77.547 51.6375 83.6453 61.541 83.6453 72.2857C83.6453 74.3072 85.29 75.9518 87.3129 75.9518L94.3613 75.9417C96.3774 75.9417 98.0175 74.3016 98.0175 72.2855C98.0175 70.2696 96.3774 68.6295 94.3613 68.6295H90.7936C89.6075 56.9096 82.7202 46.5228 72.4569 40.8251H90.1272V43.3276C90.1272 45.9685 92.2756 48.1169 94.9165 48.1169C97.5573 48.1169 99.706 45.9685 99.706 43.3276V26.9039C99.706 26.3107 99.2252 25.8296 98.6318 25.8296H95.9907V21.7343H106.562C107.156 21.7343 107.637 21.2533 107.637 20.6601C107.637 20.0669 107.156 19.5861 106.562 19.5861ZM17.7238 43.328C17.7238 44.7842 16.5391 45.9689 15.0829 45.9689C13.6267 45.9689 12.4418 44.7842 12.4418 43.328V27.9785H17.7238V43.328ZM36.7357 33.2314C36.7357 27.9005 41.0728 23.5635 46.4037 23.5635H63.5963C68.9272 23.5635 73.2643 27.9005 73.2643 33.2314V36.5287C73.2643 37.7133 72.3005 38.6771 71.1159 38.6771H38.8841C37.6995 38.6771 36.7357 37.7133 36.7357 36.5287V33.2314ZM19.8722 33.8831H34.5873V36.5284C34.5873 37.3115 34.8013 38.0439 35.1686 38.6769H19.8722V33.8831ZM29.1193 55.6087C25.9112 60.5832 24.2157 66.3503 24.2157 72.286C24.2157 73.1228 23.5348 73.8034 22.6982 73.8034H15.6479C14.8109 73.8034 14.1303 73.1226 14.1303 72.286C14.1303 71.4489 14.8111 70.7683 15.6479 70.7683H20.2011C20.7638 70.7683 21.2313 70.3341 21.2723 69.7727C22.1416 57.9346 29.1943 47.4206 39.7669 42.0817L41.0616 44.8274C36.1997 47.299 32.0858 51.0085 29.1193 55.6087ZM61.4979 57.685V63.8901C61.4979 64.4824 61.0161 64.9643 60.4237 64.9643H49.5765C48.9842 64.9643 48.5023 64.4824 48.5023 63.8901V57.685C48.5023 57.0926 48.9842 56.6107 49.5765 56.6107H60.4237C61.0158 56.6107 61.4979 57.0926 61.4979 57.685ZM56.6616 54.4623H53.3384V52.3272H56.6616V54.4623ZM64.911 48.3307C64.3653 49.488 63.2756 50.179 61.9962 50.179H48.004C46.7244 50.179 45.635 49.488 45.0893 48.3307L41.5501 40.8253H68.4499L64.911 48.3307ZM88.7384 69.7824C88.7792 70.3438 89.2467 70.7784 89.8096 70.7784H94.362C95.1932 70.7784 95.8697 71.4545 95.8697 72.286C95.8697 73.1174 95.1934 73.7937 94.3607 73.7937L87.3123 73.8038C86.4753 73.8038 85.7946 73.123 85.7946 72.2862C85.7946 66.3541 84.1006 60.5899 80.8958 55.6169C77.9275 51.0108 73.8085 47.2973 68.9399 44.8242L70.2348 42.0779C80.8156 47.4169 87.8719 57.9365 88.7384 69.7824ZM74.8314 38.6771C75.1988 38.0442 75.4127 37.3118 75.4127 36.5287V33.8831H90.1278V38.6769H74.8314V38.6771ZM97.5582 43.328C97.5582 44.7842 96.3733 45.9689 94.9171 45.9689C93.4609 45.9689 92.2763 44.7842 92.2763 43.328V27.9785H97.5582V43.328ZM69.236 84.7987C69.6556 85.218 69.6556 85.8982 69.236 86.3176C65.311 90.2428 60.1554 92.205 55 92.205C49.8444 92.205 44.6888 90.2426 40.7638 86.3176C40.3442 85.8982 40.3442 85.218 40.7638 84.7987C41.183 84.3791 41.8636 84.3791 42.2828 84.7987C45.6801 88.1956 50.1961 90.0662 55 90.0662C59.8039 90.0662 64.3201 88.1956 67.717 84.7987C68.1362 84.3791 68.8168 84.3791 69.236 84.7987ZM48.1637 78.9182C51.9333 82.687 58.0662 82.6874 61.8363 78.9182C62.2555 78.4986 62.9361 78.4986 63.3553 78.9182C63.7749 79.3376 63.7749 80.0178 63.3553 80.4373C61.0517 82.7407 58.0259 83.8925 54.9998 83.8925C51.9739 83.8925 48.9481 82.7407 46.6445 80.4373C46.2249 80.0178 46.2249 79.3376 46.6443 78.9182C47.0641 78.4986 47.7445 78.4986 48.1637 78.9182ZM55 73.8006C54.0534 73.8006 53.2812 73.0285 53.2812 72.0819C53.2812 71.1353 54.0534 70.3631 55 70.3631C55.9466 70.3631 56.7188 71.1353 56.7188 72.0819C56.7188 73.0285 55.9468 73.8006 55 73.8006ZM55 64.1069C56.8305 64.1069 58.3193 62.6178 58.3193 60.7875C58.3193 58.9573 56.8303 57.4684 55 57.4684C53.1697 57.4684 51.6807 58.9575 51.6807 60.7875C51.6807 62.6178 53.1697 64.1069 55 64.1069ZM55 59.6168C55.6456 59.6168 56.1709 60.1419 56.1709 60.7875C56.1709 61.4331 55.6456 61.9584 55 61.9584C54.3544 61.9584 53.8291 61.4331 53.8291 60.7875C53.8291 60.1419 54.3546 59.6168 55 59.6168Z" fill="white"/>
</g>
<defs>
<clipPath id="clip0_97_28004">
<rect width="110" height="110" fill="white"/>
</clipPath>
</defs>
</svg>
