<svg width="97" height="97" viewBox="0 0 97 97" fill="none" xmlns="http://www.w3.org/2000/svg">
<g clip-path="url(#clip0_97_28016)">
<path d="M93.9688 80.7217H3.03135C2.7311 80.7178 2.44424 80.5968 2.23191 80.3844C2.01958 80.1721 1.89856 79.8852 1.89463 79.585V17.4444C1.89263 17.2931 1.92044 17.1429 1.97649 17.0024C2.03253 16.8619 2.11571 16.7338 2.22126 16.6254C2.32682 16.517 2.45269 16.4305 2.59169 16.3708C2.73068 16.3111 2.88008 16.2793 3.03135 16.2773H93.9688C94.2691 16.2813 94.556 16.4023 94.7683 16.6146C94.9806 16.827 95.1016 17.1138 95.1056 17.4141V79.5547C95.1076 79.706 95.0798 79.8561 95.0237 79.9967C94.9677 80.1372 94.8845 80.2653 94.7789 80.3736C94.6734 80.482 94.5475 80.5685 94.4085 80.6283C94.2695 80.688 94.1201 80.7197 93.9688 80.7217ZM85.2085 78.4483H92.7867V70.8701H85.2085V78.4483ZM67.4303 78.4483H82.9351V70.8701H67.4303V78.4483ZM49.6368 78.4483H65.172V70.8701H49.6368V78.4483ZM31.8282 78.4483H47.3634V70.8701H31.8282V78.4483ZM14.0499 78.4483H29.5699V70.8701H14.0651L14.0499 78.4483ZM4.15291 78.4483H11.731V70.8701H4.15291V78.4483ZM4.15291 68.5512H92.817V64.0044H78.6307C78.3292 64.0044 78.0401 63.8846 77.8269 63.6714C77.6138 63.4583 77.494 63.1691 77.494 62.8677V34.192C77.494 33.8906 77.6138 33.6014 77.8269 33.3883C78.0401 33.1751 78.3292 33.0553 78.6307 33.0553H92.8321V28.5084H4.16807V33.0553H18.3695C18.671 33.0553 18.9601 33.1751 19.1733 33.3883C19.3864 33.6014 19.5062 33.8906 19.5062 34.192V62.807C19.5062 63.1085 19.3864 63.3976 19.1733 63.6108C18.9601 63.824 18.671 63.9437 18.3695 63.9437H4.16807L4.15291 68.5512ZM79.7523 61.6703H92.817V35.3287H79.7674L79.7523 61.6703ZM4.15291 61.6703H17.2176V35.3287H4.16807L4.15291 61.6703ZM85.2085 26.1744H92.7867V18.5963H85.2085V26.1744ZM67.4303 26.1744H82.9351V18.5963H67.4303V26.1744ZM49.6368 26.1744H65.172V18.5963H49.6368V26.1744ZM31.8282 26.1744H47.3634V18.5963H31.8282V26.1744ZM14.0499 26.1744H29.5699V18.5963H14.0651L14.0499 26.1744ZM4.15291 26.1744H11.731V18.5963H4.15291V26.1744ZM71.7346 63.9437H25.2656C24.9641 63.9437 24.675 63.824 24.4618 63.6108C24.2486 63.3976 24.1289 63.1085 24.1289 62.807V34.192C24.1289 33.8906 24.2486 33.6014 24.4618 33.3883C24.675 33.1751 24.9641 33.0553 25.2656 33.0553H71.7346C72.0361 33.0553 72.3252 33.1751 72.5384 33.3883C72.7516 33.6014 72.8714 33.8906 72.8714 34.192V62.807C72.8714 63.1085 72.7516 63.3976 72.5384 63.6108C72.3252 63.824 72.0361 63.9437 71.7346 63.9437ZM26.4023 61.6703H70.5979V35.3287H26.4023V61.6703ZM41.0281 58.1692C40.728 58.1627 40.4413 58.0437 40.2248 57.8358L32.9801 50.5911C31.41 49.1496 30.3961 47.2023 30.1156 45.0894C30.0117 44.2438 30.1024 43.3857 30.3808 42.5806C30.6591 41.7754 31.1177 41.0445 31.7215 40.4436C32.3254 39.8426 33.0585 39.3876 33.865 39.1132C34.6715 38.8388 35.5301 38.7522 36.3751 38.8602C38.0951 39.0581 39.7134 39.7774 41.0129 40.9214C41.9795 39.9702 43.1946 39.3106 44.5189 39.0184C45.8432 38.7262 47.223 38.8132 48.5001 39.2694C49.7736 38.8229 51.1464 38.741 52.4639 39.0329C53.7814 39.3248 54.9912 39.9789 55.957 40.9214C59.4732 37.9811 63.232 38.36 65.2781 40.3909C67.3242 42.4219 67.7637 46.7869 64.0353 50.5305L56.7603 57.7752C56.5471 57.988 56.2582 58.1076 55.957 58.1076C55.6557 58.1076 55.3668 57.988 55.1537 57.7752L48.5001 51.1973L41.8314 57.8358C41.6149 58.0437 41.3282 58.1627 41.0281 58.1692ZM50.1218 49.5302L56.0328 55.4259L62.5045 48.9845C65.3084 46.1655 65.1114 43.4222 63.7473 42.0733C62.3832 40.7244 59.6399 40.5577 56.836 43.3161C56.7315 43.4233 56.6066 43.5086 56.4687 43.5668C56.3307 43.625 56.1825 43.6549 56.0328 43.6549C55.883 43.6549 55.7348 43.625 55.5968 43.5668C55.4589 43.5086 55.334 43.4233 55.2295 43.3161C54.1301 42.0801 52.6139 41.2924 50.9706 41.1033C51.483 41.82 51.8251 42.6442 51.9709 43.5131C52.0977 44.5977 51.9887 45.6969 51.6513 46.7354C51.3138 47.774 50.7559 48.7273 50.0157 49.5302H50.1218ZM35.8295 41.1033C35.3807 41.0926 34.9344 41.173 34.5176 41.3397C34.1007 41.5065 33.7221 41.756 33.4045 42.0733C33.0465 42.44 32.7751 42.8821 32.6099 43.3672C32.4447 43.8523 32.3899 44.3682 32.4496 44.8772C32.6876 46.4618 33.47 47.9141 34.6624 48.9845L41.1039 55.4259L47.7726 48.7875C48.4048 48.1966 48.9066 47.4802 49.2459 46.6842C49.5852 45.8882 49.7545 45.0301 49.7429 44.1648C49.7502 44.0791 49.7502 43.9929 49.7429 43.9072C49.6693 43.4661 49.5097 43.0438 49.2731 42.6644C49.1402 42.441 48.9712 42.2413 48.7729 42.0733C47.2573 40.6789 44.4685 40.6789 41.9374 43.3312C41.8349 43.4417 41.7106 43.5297 41.5723 43.5897C41.4341 43.6496 41.2849 43.6804 41.1342 43.6798C40.9818 43.6864 40.8298 43.6599 40.6886 43.6024C40.5473 43.5449 40.4202 43.4575 40.3157 43.3464C39.25 42.1586 37.8023 41.3812 36.2235 41.1487L35.8295 41.1033Z" fill="white"/>
</g>
<defs>
<clipPath id="clip0_97_28016">
<rect width="97" height="97" fill="white"/>
</clipPath>
</defs>
</svg>
