<svg width="106" height="106" viewBox="0 0 106 106" fill="none" xmlns="http://www.w3.org/2000/svg">
<g clip-path="url(#clip0_97_27980)">
<path fill-rule="evenodd" clip-rule="evenodd" d="M1.85986 86.345H104.141V28.6956H1.85986V86.345ZM105.071 88.2046H0.929932C0.416672 88.2046 0 87.7887 0 87.2749V27.7659C0 27.2524 0.416183 26.8362 0.929687 26.8362L105.071 26.8359C105.584 26.8359 106 27.2526 106 27.7659L106 87.2749C106 87.7884 105.584 88.2048 105.071 88.2046Z" fill="white"/>
<path fill-rule="evenodd" clip-rule="evenodd" d="M28.0002 54.3145H0.929932C0.416672 54.3145 0 53.8983 0 53.3848C0 52.8713 0.416183 52.4551 0.929687 52.4551H28.0002C28.5134 52.4551 28.9296 52.8715 28.9296 53.3848C28.9301 53.8983 28.5132 54.3147 28.0002 54.3145ZM105.071 54.3145H78.0006C77.4873 54.3145 77.0701 53.8983 77.0701 53.3848C77.0704 52.8713 77.4868 52.4551 78.0001 52.4551H105.071C105.584 52.4551 106 52.8715 106 53.3848C106 53.8983 105.584 54.3147 105.071 54.3145ZM28.0002 62.6005H0.929932C0.416672 62.6005 0 62.1843 0 61.671C0 61.1573 0.416183 60.7413 0.929687 60.7413L28.0002 60.7411C28.5134 60.7411 28.9296 61.1575 28.9296 61.671C28.9301 62.1843 28.5132 62.6005 28.0002 62.6005ZM105.071 62.6005H78.0006C77.4873 62.6005 77.0701 62.1843 77.0701 61.671C77.0704 61.1573 77.4868 60.7413 78.0001 60.7413L105.071 60.7411C105.584 60.7411 106 61.1575 106 61.671C106 62.1843 105.584 62.6005 105.071 62.6005Z" fill="white"/>
<path fill-rule="evenodd" clip-rule="evenodd" d="M13.4203 28.6949C12.907 28.6949 12.4906 28.2787 12.4906 27.7652L12.4909 19.6545H7.44922V27.7652C7.44922 28.2787 7.03279 28.6951 6.51953 28.6951C6.00676 28.6949 5.58984 28.2787 5.58984 27.7652V18.7246C5.58984 18.2113 6.00627 17.7949 6.51953 17.7949H13.4203C13.9362 17.7949 14.35 18.2116 14.35 18.7249L14.3502 27.7652C14.3502 28.2787 13.936 28.6951 13.4203 28.6949Z" fill="white"/>
<path fill-rule="evenodd" clip-rule="evenodd" d="M52.9996 33.1191C39.5422 33.1191 28.5901 44.0688 28.5901 57.5275C28.5901 70.9859 39.5419 81.9353 52.9994 81.9353C66.4574 81.9353 77.4062 70.9859 77.4062 57.5275C77.4065 44.0688 66.4569 33.1194 52.9996 33.1191ZM52.9996 83.7949C38.5151 83.7949 26.7305 72.0115 26.7305 57.5275C26.7307 43.0432 38.5149 31.2598 52.9994 31.2598C67.4841 31.2595 79.2659 43.0432 79.2659 57.5275C79.2659 72.0112 67.4836 83.7949 52.9996 83.7949Z" fill="white"/>
<path fill-rule="evenodd" clip-rule="evenodd" d="M53.0022 41.377C44.0966 41.377 36.8518 48.6215 36.8518 57.5264C36.8518 66.4306 44.0964 73.6754 53.002 73.6754C61.9054 73.6754 69.1498 66.4308 69.1498 57.5264C69.15 48.6213 61.9052 41.3772 53.0022 41.377ZM53.0022 75.535C43.0723 75.535 34.9922 67.4564 34.9922 57.5264C34.9924 47.596 43.0723 39.5176 53.002 39.5176C62.9317 39.5176 71.0094 47.5962 71.0094 57.5264C71.0094 67.4561 62.9317 75.535 53.0022 75.535Z" fill="white"/>
<path fill-rule="evenodd" clip-rule="evenodd" d="M53.0015 50.0566C48.883 50.0566 45.5315 53.4074 45.5315 57.5262C45.532 61.6445 48.8825 64.9952 53.0013 64.9952C57.1203 64.9952 60.471 61.6445 60.471 57.5262C60.4713 53.4074 57.1198 50.0566 53.0015 50.0566ZM53.0015 66.8548C47.856 66.8548 43.6719 62.6698 43.6719 57.5262C43.6719 52.3818 47.856 48.1973 53.0013 48.1973C58.1444 48.197 62.3307 52.3821 62.3307 57.5262C62.3307 62.6698 58.1441 66.8548 53.0015 66.8548Z" fill="white"/>
<path fill-rule="evenodd" clip-rule="evenodd" d="M100.053 28.6952C99.5398 28.6952 99.1226 28.279 99.1226 27.7655L99.1229 23.2151H88.5393V27.7655C88.5393 28.279 88.1226 28.6954 87.6094 28.6954C87.0966 28.6952 86.6797 28.279 86.6797 27.7655L86.6799 22.2852C86.6799 21.7717 87.0961 21.3555 87.6094 21.3555H100.053C100.566 21.3555 100.982 21.7717 100.982 22.2854V27.7655C100.982 28.279 100.566 28.6954 100.053 28.6952Z" fill="white"/>
<path fill-rule="evenodd" clip-rule="evenodd" d="M95.6291 33.24C94.46 33.24 93.5081 34.1919 93.5081 35.3615C93.5083 36.5311 94.4595 37.4828 95.6291 37.4828C96.7989 37.4825 97.7501 36.5313 97.7501 35.3615C97.7506 34.1917 96.7986 33.2402 95.6291 33.24ZM95.6291 39.3424C93.433 39.3424 91.6484 37.5566 91.6484 35.3615C91.6489 33.1664 93.433 31.3809 95.6291 31.3809C97.823 31.3806 99.6097 33.1666 99.6097 35.3615C99.61 37.5564 97.8227 39.3424 95.6291 39.3424Z" fill="white"/>
<path fill-rule="evenodd" clip-rule="evenodd" d="M19.9319 33.7441H5.64868C5.13542 33.7441 4.71875 33.328 4.71875 32.8147C4.71924 32.3009 5.13518 31.885 5.64844 31.885L19.9319 31.8848C20.4452 31.8848 20.8616 32.3012 20.8616 32.8147C20.8621 33.328 20.4452 33.7441 19.9319 33.7441Z" fill="white"/>
<path fill-rule="evenodd" clip-rule="evenodd" d="M19.9319 38.6836H5.64868C5.13542 38.6836 4.71875 38.2674 4.71875 37.7539C4.71924 37.2404 5.13518 36.8245 5.64844 36.8245L19.9319 36.8242C20.4452 36.8242 20.8616 37.2406 20.8616 37.7539C20.8621 38.2674 20.4452 38.6838 19.9319 38.6836Z" fill="white"/>
</g>
<defs>
<clipPath id="clip0_97_27980">
<rect width="106" height="106" fill="white"/>
</clipPath>
</defs>
</svg>
